<mxfile host="Electron" modified="2023-12-31T13:42:34.563Z" agent="Mozilla/5.0 (Windows NT 10.0; Win64; x64) AppleWebKit/537.36 (KHTML, like Gecko) draw.io/22.1.16 Chrome/120.0.6099.109 Electron/28.1.0 Safari/537.36" etag="FgfeoWMphL6-res3ta2D" version="22.1.16" type="device">
  <diagram name="Page-1" id="2cc2dc42-3aac-f2a9-1cec-7a8b7cbee084">
    <mxGraphModel dx="2100" dy="2232" grid="1" gridSize="10" guides="1" tooltips="1" connect="1" arrows="1" fold="1" page="1" pageScale="1" pageWidth="1100" pageHeight="850" background="none" math="0" shadow="0">
      <root>
        <mxCell id="0" />
        <mxCell id="1" parent="0" />
        <mxCell id="AsocRW2U9enTBRK1ayEM-1" value="" style="strokeWidth=1;shadow=0;dashed=0;align=center;html=1;shape=mxgraph.mockup.containers.browserWindow;rSize=0;strokeColor=#666666;strokeColor2=#008cff;strokeColor3=#c4c4c4;mainText=,;recursiveResize=0;" vertex="1" parent="1">
          <mxGeometry x="200" y="-80" width="740" height="1630" as="geometry" />
        </mxCell>
        <mxCell id="AsocRW2U9enTBRK1ayEM-2" value="Page 1" style="strokeWidth=1;shadow=0;dashed=0;align=center;html=1;shape=mxgraph.mockup.containers.anchor;fontSize=17;fontColor=#666666;align=left;whiteSpace=wrap;" vertex="1" parent="AsocRW2U9enTBRK1ayEM-1">
          <mxGeometry x="60" y="12" width="110" height="26" as="geometry" />
        </mxCell>
        <mxCell id="AsocRW2U9enTBRK1ayEM-3" value="https://www.draw.io" style="strokeWidth=1;shadow=0;dashed=0;align=center;html=1;shape=mxgraph.mockup.containers.anchor;rSize=0;fontSize=17;fontColor=#666666;align=left;" vertex="1" parent="AsocRW2U9enTBRK1ayEM-1">
          <mxGeometry x="130" y="60" width="250" height="26" as="geometry" />
        </mxCell>
        <mxCell id="AsocRW2U9enTBRK1ayEM-9" value="" style="rounded=0;whiteSpace=wrap;html=1;" vertex="1" parent="AsocRW2U9enTBRK1ayEM-1">
          <mxGeometry y="110" width="740" height="80" as="geometry" />
        </mxCell>
        <mxCell id="AsocRW2U9enTBRK1ayEM-14" value="" style="verticalLabelPosition=bottom;shadow=0;dashed=0;align=center;html=1;verticalAlign=top;strokeWidth=1;shape=mxgraph.mockup.graphics.simpleIcon;strokeColor=#999999;" vertex="1" parent="AsocRW2U9enTBRK1ayEM-1">
          <mxGeometry x="30" y="125" width="290" height="50" as="geometry" />
        </mxCell>
        <mxCell id="AsocRW2U9enTBRK1ayEM-15" value="&lt;b&gt;&lt;font style=&quot;font-size: 18px;&quot;&gt;LOGO&lt;/font&gt;&lt;/b&gt;" style="text;html=1;strokeColor=none;fillColor=none;align=center;verticalAlign=middle;whiteSpace=wrap;rounded=0;" vertex="1" parent="AsocRW2U9enTBRK1ayEM-1">
          <mxGeometry x="145" y="135" width="60" height="30" as="geometry" />
        </mxCell>
        <mxCell id="AsocRW2U9enTBRK1ayEM-42" value="" style="rounded=0;whiteSpace=wrap;html=1;" vertex="1" parent="AsocRW2U9enTBRK1ayEM-1">
          <mxGeometry x="110" y="1130" width="550" height="310" as="geometry" />
        </mxCell>
        <mxCell id="AsocRW2U9enTBRK1ayEM-43" value="&lt;font style=&quot;font-size: 23px;&quot;&gt;MAP&lt;/font&gt;" style="text;html=1;strokeColor=none;fillColor=none;align=center;verticalAlign=middle;whiteSpace=wrap;rounded=0;" vertex="1" parent="AsocRW2U9enTBRK1ayEM-1">
          <mxGeometry x="270" y="1220" width="240" height="110" as="geometry" />
        </mxCell>
        <mxCell id="AsocRW2U9enTBRK1ayEM-44" value="" style="rounded=0;whiteSpace=wrap;html=1;" vertex="1" parent="AsocRW2U9enTBRK1ayEM-1">
          <mxGeometry y="1480" width="740" height="150" as="geometry" />
        </mxCell>
        <mxCell id="AsocRW2U9enTBRK1ayEM-46" value="&lt;font style=&quot;font-size: 23px;&quot;&gt;INSTITUTIONAL INFORMATION&lt;/font&gt;" style="rounded=0;whiteSpace=wrap;html=1;" vertex="1" parent="AsocRW2U9enTBRK1ayEM-1">
          <mxGeometry x="154" y="1500" width="480" height="50" as="geometry" />
        </mxCell>
        <mxCell id="AsocRW2U9enTBRK1ayEM-47" value="&lt;font style=&quot;font-size: 17px;&quot;&gt;BANK&#39;S SOCIAL MEDIA LINKS&lt;/font&gt;" style="rounded=0;whiteSpace=wrap;html=1;" vertex="1" parent="AsocRW2U9enTBRK1ayEM-1">
          <mxGeometry x="116" y="1560" width="560" height="60" as="geometry" />
        </mxCell>
        <mxCell id="AsocRW2U9enTBRK1ayEM-49" value="" style="rounded=0;whiteSpace=wrap;html=1;align=center;" vertex="1" parent="AsocRW2U9enTBRK1ayEM-1">
          <mxGeometry x="2" y="280" width="736" height="800" as="geometry" />
        </mxCell>
        <mxCell id="AsocRW2U9enTBRK1ayEM-50" value="" style="strokeWidth=1;shadow=0;dashed=0;align=center;html=1;shape=mxgraph.mockup.forms.pwField;strokeColor=#999999;mainText=;align=left;fontColor=#666666;fontSize=17;spacingLeft=3;" vertex="1" parent="AsocRW2U9enTBRK1ayEM-1">
          <mxGeometry x="188" y="380" width="410" height="40" as="geometry" />
        </mxCell>
        <mxCell id="AsocRW2U9enTBRK1ayEM-52" value="" style="strokeWidth=1;shadow=0;dashed=0;align=center;html=1;shape=mxgraph.mockup.forms.pwField;strokeColor=#999999;mainText=;align=left;fontColor=#666666;fontSize=17;spacingLeft=3;" vertex="1" parent="AsocRW2U9enTBRK1ayEM-1">
          <mxGeometry x="189" y="505" width="410" height="40" as="geometry" />
        </mxCell>
        <mxCell id="AsocRW2U9enTBRK1ayEM-51" value="" style="strokeWidth=1;shadow=0;dashed=0;align=center;html=1;shape=mxgraph.mockup.forms.pwField;strokeColor=#999999;mainText=;align=left;fontColor=#666666;fontSize=17;spacingLeft=3;" vertex="1" parent="AsocRW2U9enTBRK1ayEM-1">
          <mxGeometry x="189" y="440" width="410" height="40" as="geometry" />
        </mxCell>
        <mxCell id="AsocRW2U9enTBRK1ayEM-53" value="Button" style="labelPosition=center;verticalLabelPosition=middle;align=center;html=1;shape=mxgraph.basic.button;dx=10;whiteSpace=wrap;" vertex="1" parent="AsocRW2U9enTBRK1ayEM-1">
          <mxGeometry x="275" y="570" width="230" height="60" as="geometry" />
        </mxCell>
        <mxCell id="AsocRW2U9enTBRK1ayEM-54" value="" style="ellipse;whiteSpace=wrap;html=1;aspect=fixed;" vertex="1" parent="AsocRW2U9enTBRK1ayEM-1">
          <mxGeometry x="206" y="670" width="385" height="385" as="geometry" />
        </mxCell>
        <mxCell id="AsocRW2U9enTBRK1ayEM-55" value="REQUEST YOUR BANK ACCOUNT - FORM" style="text;html=1;strokeColor=none;fillColor=none;align=center;verticalAlign=middle;whiteSpace=wrap;rounded=0;" vertex="1" parent="AsocRW2U9enTBRK1ayEM-1">
          <mxGeometry x="198" y="320" width="400" height="60" as="geometry" />
        </mxCell>
        <mxCell id="AsocRW2U9enTBRK1ayEM-63" value="&lt;p style=&quot;line-height: 180%;&quot;&gt;&lt;b style=&quot;font-size: 19px;&quot;&gt;___________&lt;br&gt;___________&lt;br&gt;___________&lt;/b&gt;&lt;/p&gt;" style="text;html=1;strokeColor=none;fillColor=none;align=center;verticalAlign=middle;whiteSpace=wrap;rounded=0;" vertex="1" parent="AsocRW2U9enTBRK1ayEM-1">
          <mxGeometry x="580" y="100" width="140" height="80" as="geometry" />
        </mxCell>
        <mxCell id="AsocRW2U9enTBRK1ayEM-66" value="" style="rounded=0;whiteSpace=wrap;html=1;" vertex="1" parent="AsocRW2U9enTBRK1ayEM-1">
          <mxGeometry y="190" width="740" height="90" as="geometry" />
        </mxCell>
        <mxCell id="AsocRW2U9enTBRK1ayEM-67" value="&lt;font style=&quot;font-size: 23px;&quot;&gt;OPEN&amp;nbsp; ACCOUNT LINK&lt;/font&gt;" style="text;html=1;strokeColor=none;fillColor=none;align=center;verticalAlign=middle;whiteSpace=wrap;rounded=0;" vertex="1" parent="AsocRW2U9enTBRK1ayEM-1">
          <mxGeometry x="170" y="200" width="420" height="70" as="geometry" />
        </mxCell>
        <mxCell id="AsocRW2U9enTBRK1ayEM-57" value="" style="verticalLabelPosition=bottom;shadow=0;dashed=0;align=center;html=1;verticalAlign=top;strokeWidth=1;shape=mxgraph.mockup.graphics.simpleIcon;strokeColor=#999999;" vertex="1" parent="AsocRW2U9enTBRK1ayEM-1">
          <mxGeometry x="266" y="740" width="270" height="250" as="geometry" />
        </mxCell>
        <mxCell id="AsocRW2U9enTBRK1ayEM-58" value="&lt;b&gt;&lt;font style=&quot;font-size: 20px;&quot;&gt;LOGO 2&lt;/font&gt;&lt;/b&gt;" style="text;html=1;strokeColor=none;fillColor=none;align=center;verticalAlign=middle;whiteSpace=wrap;rounded=0;" vertex="1" parent="AsocRW2U9enTBRK1ayEM-1">
          <mxGeometry x="353.25" y="840" width="97.5" height="50" as="geometry" />
        </mxCell>
        <mxCell id="AsocRW2U9enTBRK1ayEM-4" value="&lt;font style=&quot;font-size: 28px;&quot;&gt;SIGNUP PAGE&lt;/font&gt;" style="text;html=1;strokeColor=none;fillColor=none;align=center;verticalAlign=middle;whiteSpace=wrap;rounded=0;" vertex="1" parent="1">
          <mxGeometry x="30" y="-170" width="1100" height="60" as="geometry" />
        </mxCell>
      </root>
    </mxGraphModel>
  </diagram>
</mxfile>
